File Name

Hot Tub Time Machine UNRATED BRRip H264 LKRG-Wrath.mp4

File Size
Format : MPEG-4
Format profile : Base Media
File size : 2.00 GiB
Duration : 1h 40mn
Overall bit rate : 2 845 Kbps

Video
ID : 1
Format : AVC
Format/Info : Advanced Video Codec
Format profile : High@L4.1
Format settings, CABAC : Yes
Format settings, ReFrames : 3 frames
Codec ID : avc1
Codec ID/Info : Advanced Video Coding
Duration : 1h 40mn
Bit rate mode : Variable
Bit rate : 2 267 Kbps
Maximum bit rate : 13.6 Mbps
Width : 1 280 pixels
Height : 688 pixels
Display aspect ratio : 1.860
Frame rate mode : Constant
Frame rate : 23.976 fps
Resolution : 24 bits
Colorimetry : 4:2:0
Scan type : Progressive
Bits/(Pixel*Frame) : 0.107
Stream size : 1.59 GiB (80%)

Audio #1
ID : 2
Format : AAC
Format/Info : Advanced Audio Codec
Format version : Version 4
Format profile : LC
Format settings, SBR : No
Codec ID : 40
Duration : 1h 40mn
Bit rate mode : Variable
Bit rate : 128 Kbps
Maximum bit rate : 134 Kbps
Channel(s) : 2 channels
Channel positions : L R
Sampling rate : 48.0 KHz
Resolution : 16 bits
Stream size : 92.1 MiB (4%)

Audio #2
ID : 3
Format : AAC
Format/Info : Advanced Audio Codec
Format version : Version 4
Format profile : LC
Format settings, SBR : No
Codec ID : 40
Duration : 1h 40mn
Bit rate mode : Variable
Bit rate : 448 Kbps
Maximum bit rate : 459 Kbps
Channel(s) : 6 channels
Channel positions : Front: L C R, Rear: L R, LFE
Sampling rate : 48.0 KHz
Resolution : 16 bits
Stream size : 322 MiB (16%)

Text
ID : 4
Format : Timed text
Codec ID : tx3g
Duration : 1h 40mn
Bit rate mode : Variable
Bit rate : 106 bps
Stream size : 78.0 KiB (0%)

English SRT : External

Language : English

 
http://www.imdb.com/title/tt1231567/

Release Date: 26 March 2010 (USA)

Genre: Comedy | Sci-Fi 

Plot: Four guy friends, all of them bored with their adult lives, travel back to their respective 80s heydays thanks to a time-bending hot tub.

Cast: 
John Cusack ... Adam
Clark Duke ... Jacob
Craig Robinson ... Nick Webber
Rob Corddry ... Lou
Sebastian Stan ... Blaine
Lyndsy Fonseca ... Jennie
Crispin Glover ... Phil
Chevy Chase ... Repair Man
Charlie McDermott ... Chaz
Lizzy Caplan ... April
Collette Wolfe ... Kelly
Aliu Oyofo ... Young Nick
Jake Rose ... Young Adam
Brook Bennett ... Young Lou
Crystal Lowe ... Zoe


Screenshots
 
http://postimg.com/image/17000/16456.jpg
 
http://postimg.com/image/17000/16457.jpg